<svg width="1080" height="664" viewBox="0 0 1080 664" fill="none" xmlns="http://www.w3.org/2000/svg">
<path d="M556.327 409.198C558.496 409.065 454.271 218.657 454.271 218.657L337.228 0L499.632 1.28404L728.427 410.216L556.327 409.198Z" fill="url(#paint0_linear_426_4301)"/>
<path opacity="0.32" d="M719.416 398.993L548.312 397.643L524.646 350.732L696.548 355.514L719.416 398.993Z" fill="black"/>
<path d="M315.434 662.447L455.519 663.547L456.619 523.462L316.534 522.362L315.434 662.447Z" fill="url(#paint1_linear_426_4301)"/>
<path d="M455.794 519.636L553.84 520.406L554.61 422.36L456.564 421.59L455.794 519.636Z" fill="url(#paint2_linear_426_4301)"/>
<path d="M668.831 654.244L837.434 655.572L764.534 514.885L599.229 510.17L668.831 654.244Z" fill="url(#paint3_linear_426_4301)"/>
<path d="M0.022092 648.93L179.561 650.347L432.332 171.658C435.122 162.205 341.301 0.0219727 341.301 0.0219727H339.596L11.7553 627.434L0 648.908L0.022092 648.93Z" fill="url(#paint4_linear_426_4301)"/>
<path opacity="0.32" d="M785.697 547.893L614.593 546.52L590.928 499.632L762.829 504.392L785.697 547.893Z" fill="black"/>
<path d="M946.309 6.19873L554.976 2.41309L613.509 111.022L642.819 166.323L643.306 166.3L644.015 167.607L898.314 169.621L836.128 372.848L536.203 370.944L608.793 529.762L877.083 531.887L1011.39 428.502L1080 119.523L946.309 6.19873Z" fill="url(#paint5_linear_426_4301)"/>
<defs>
<linearGradient id="paint0_linear_426_4301" x1="898.077" y1="890.953" x2="405.302" y2="-34.7038" gradientUnits="userSpaceOnUse">
<stop offset="0.29" stop-color="#123E7B"/>
<stop offset="0.33" stop-color="#134284"/>
<stop offset="0.41" stop-color="#174F9E"/>
<stop offset="0.5" stop-color="#1D64C9"/>
<stop offset="0.61" stop-color="#267FFF"/>
<stop offset="0.68" stop-color="#206CD8"/>
<stop offset="0.76" stop-color="#1B59B0"/>
<stop offset="0.84" stop-color="#174C93"/>
<stop offset="0.91" stop-color="#144382"/>
<stop offset="0.96" stop-color="#14417C"/>
</linearGradient>
<linearGradient id="paint1_linear_426_4301" x1="353.776" y1="214.551" x2="408.082" y2="851.596" gradientUnits="userSpaceOnUse">
<stop offset="0.44" stop-color="#1B97FB"/>
<stop offset="0.51" stop-color="#18A0FB"/>
<stop offset="0.62" stop-color="#12BAFC"/>
<stop offset="0.78" stop-color="#07E5FE"/>
<stop offset="0.86" stop-color="#01FFFF"/>
<stop offset="0.93" stop-color="#00D9FC"/>
<stop offset="1" stop-color="#00B7FB"/>
</linearGradient>
<linearGradient id="paint2_linear_426_4301" x1="521.178" y1="247.911" x2="494.55" y2="619.388" gradientUnits="userSpaceOnUse">
<stop offset="0.44" stop-color="#1B97FB"/>
<stop offset="0.51" stop-color="#18A0FB"/>
<stop offset="0.62" stop-color="#12BAFC"/>
<stop offset="0.78" stop-color="#07E5FE"/>
<stop offset="0.86" stop-color="#01FFFF"/>
<stop offset="0.93" stop-color="#00D9FC"/>
<stop offset="1" stop-color="#00B7FB"/>
</linearGradient>
<linearGradient id="paint3_linear_426_4301" x1="872.855" y1="946.952" x2="526.572" y2="131.035" gradientUnits="userSpaceOnUse">
<stop offset="0.18" stop-color="#123E7B"/>
<stop offset="0.23" stop-color="#134284"/>
<stop offset="0.31" stop-color="#174F9E"/>
<stop offset="0.41" stop-color="#1D64C9"/>
<stop offset="0.52" stop-color="#267FFF"/>
<stop offset="0.67" stop-color="#206DD9"/>
<stop offset="1" stop-color="#14417C"/>
</linearGradient>
<linearGradient id="paint4_linear_426_4301" x1="458.224" y1="59.8008" x2="-117.378" y2="828.959" gradientUnits="userSpaceOnUse">
<stop stop-color="#1B5EB7"/>
<stop offset="0.16" stop-color="#13539D"/>
<stop offset="0.42" stop-color="#084478"/>
<stop offset="0.59" stop-color="#0F4784"/>
<stop offset="0.78" stop-color="#154A8E"/>
</linearGradient>
<linearGradient id="paint5_linear_426_4301" x1="999.063" y1="-233.6" x2="277.233" y2="1267.95" gradientUnits="userSpaceOnUse">
<stop stop-color="#267FFF"/>
<stop offset="0.09" stop-color="#237AF4"/>
<stop offset="0.25" stop-color="#1D6DD7"/>
<stop offset="0.45" stop-color="#1259A8"/>
<stop offset="0.64" stop-color="#084478"/>
<stop offset="0.77" stop-color="#0F4784"/>
<stop offset="0.92" stop-color="#154A8E"/>
</linearGradient>
</defs>
</svg>
