<svg width="60" height="60" viewBox="0 0 60 60" fill="none" xmlns="http://www.w3.org/2000/svg">
<rect width="60" height="60" rx="30" fill="#2B53D9"/>
<path fill-rule="evenodd" clip-rule="evenodd" d="M29.7028 12.8936C29.4092 13.1529 29.2624 14.3847 29.2624 16.1998C29.2624 21.548 27.7211 25.2391 24.2717 28.2859C22.2535 30.0687 18.4372 31.9487 16.7905 31.9487C15.5428 31.9487 14.8456 32.4025 15.0291 33.1156C15.1391 33.699 16.0565 33.9259 22.0334 34.6714C25.4094 35.1252 27.3909 37.5562 29.5513 44.0024C30.6155 47.1141 31.3495 47.9244 32.4871 47.3086C32.9274 47.0493 33.1843 46.2713 33.4045 44.5534C34.3219 37.2969 35.8631 35.3521 42.2068 33.4073C46.2067 32.208 45.8764 30.9114 41.4363 30.1659C38.3538 29.6473 36.996 29.0639 35.7483 27.7674C34.0236 25.9522 32.5925 21.5156 31.8586 15.746C31.4916 12.7964 30.8311 11.8888 29.6936 12.8936H29.7028Z" fill="white"/>
</svg>
